<svg width="106" height="106" fill="none" xmlns="http://www.w3.org/2000/svg"><circle cx="53" cy="53" r="53" fill="#36536B"/><mask id="a" maskUnits="userSpaceOnUse" x="0" y="0" width="106" height="106"><circle cx="53" cy="53" r="53" fill="#fff"/></mask><path fill-rule="evenodd" clip-rule="evenodd" d="M72.948 45.39v.34c0 .517-.42.937-.938.937H33.937a.938.938 0 01-.937-.938v-.338A5.39 5.39 0 0138.39 40h29.167a5.39 5.39 0 015.391 5.39zM33 50.886v10.339a5.39 5.39 0 005.39 5.39h29.167a5.39 5.39 0 005.391-5.39V50.885a.938.938 0 00-.938-.937H33.937a.938.938 0 00-.937.937zm9.974 6.563h-2.5a1.64 1.64 0 110-3.281h2.5a1.64 1.64 0 010 3.28z" fill="#fff"/></svg>