<svg width="114" height="22" viewBox="0 0 114 22" fill="none" xmlns="http://www.w3.org/2000/svg">
<path fill-rule="evenodd" clip-rule="evenodd" d="M12.4437 0.272949V3.13772L13.0103 3.10221C20.2932 2.85361 25.0501 9.09219 25.0501 9.09219C25.0501 9.09219 19.5968 15.7451 13.9192 15.7451C13.4234 15.7451 12.9394 15.6977 12.4555 15.6149V17.3906C12.8568 17.4379 13.2699 17.4734 13.6713 17.4734C18.9594 17.4734 22.7838 14.7626 26.4902 11.5663C26.7672 11.7907 27.4311 12.1572 28.1241 12.5399C28.9668 13.0052 29.8525 13.4942 30.1376 13.78C26.62 16.7395 18.4164 19.1189 13.7657 19.1189C13.3172 19.1189 12.8922 19.0952 12.4673 19.0479V21.5457H32.5573V0.272949H12.4437ZM12.4437 6.61807V4.70125L12.4555 4.70033V4.69959C12.6404 4.688 12.8253 4.67665 13.0103 4.67665C18.2511 4.51092 21.686 9.19873 21.686 9.19873C21.686 9.19873 17.9797 14.3601 14.0018 14.3601C13.4706 14.3601 12.9512 14.2772 12.4555 14.1115V8.28722C14.3781 8.52127 14.8568 9.33247 15.9209 11.1358C15.987 11.2478 16.0553 11.3637 16.1265 11.4835L18.8531 9.1869C18.8531 9.1869 16.8583 6.57072 13.506 6.57072C13.1519 6.55888 12.7978 6.58256 12.4437 6.61807ZM12.4437 6.61807V8.27538H12.4319C10.3898 8.02678 8.78451 9.94452 8.78451 9.94452C8.78451 9.94452 9.6934 13.1763 12.4437 14.1115V15.6267C7.55692 14.7507 6.19948 9.64857 6.19948 9.64857C6.19948 9.64857 8.54843 7.04423 12.4437 6.61807ZM12.4555 4.69959L12.4437 4.70033V4.70125C6.6559 5.15599 3.7679 9.43549 3.7679 9.43549C3.7679 9.43549 5.97521 16.5856 12.4437 17.3906V19.0479C3.62626 18.2192 0.48645 9.10403 0.48645 9.10403C0.48645 9.10403 6.03423 3.65859 12.4555 3.13772V4.69959ZM38.3136 4.36386V18.2612H42.3034V7.47046L45.4145 7.48222C46.4357 7.48222 47.1481 7.72934 47.635 8.24711C48.2643 8.90608 48.5137 9.97692 48.5137 11.9185V18.2612H52.3847V10.5888C52.3847 5.10521 48.858 4.36386 45.4145 4.36386H38.3136ZM69.4244 4.38739V18.2729H73.3785V4.38739H69.4244ZM75.8009 18.2729V4.38739H81.3462C84.5048 4.38739 86.6184 4.76395 88.0671 6.70557C88.8864 7.78818 89.3495 9.52976 89.3495 11.4831C89.3495 13.6131 88.8033 15.5664 87.9483 16.449C86.749 17.7081 85.6328 18.2729 82.213 18.2729H75.8009ZM79.7194 7.39985H81.4175C83.8873 7.39985 85.4785 8.49422 85.4785 11.3419C85.4785 14.1897 83.8873 15.2958 81.4175 15.2958H79.7194V7.39985ZM60.4236 15.3899L63.7247 4.38739H67.762L63.2022 18.2729H57.5026L52.9903 4.38739H57.2651L60.4236 15.3899ZM91.2019 18.2729H95.1561V4.38739H91.2019V18.2729ZM96.771 18.2612L102.293 4.38739H107.577L113.146 18.2494H108.907L108.075 15.8018H101.544L100.666 18.2612H96.771ZM104.857 6.91739L107.256 13.413H102.388L104.857 6.91739Z" fill="white"/>
</svg>
