<svg width="109" height="15" viewBox="0 0 109 15" fill="none" xmlns="http://www.w3.org/2000/svg">
<g id="Shape 2">
<path id="Shape" fill-rule="evenodd" clip-rule="evenodd" d="M47.0247 9.2711H54.1314L50.3735 3.28146L43.4765 14.1109H40.3377L48.7266 1.10233C49.0913 0.576854 49.6992 0.259277 50.3735 0.259277C51.0256 0.259277 51.6335 0.565824 51.9873 1.08048L60.4094 14.1109H57.2706L55.7897 11.691H48.5943L47.0247 9.2711ZM79.6302 11.6908V0.390595H76.9666V12.7969C76.9666 13.1363 77.0991 13.4649 77.3533 13.7168C77.6075 13.9686 77.9501 14.1109 78.3259 14.1109H90.4729L92.0425 11.691H79.63L79.6302 11.6908ZM40.2492 5.03334C40.2492 7.5956 38.1492 9.66505 35.5627 9.66505L35.5629 9.66547H34.347L39.6966 14.1111H35.828L27.8768 7.24556L35.386 7.25638C36.6239 7.25638 37.6186 6.25994 37.6186 5.03375C37.6186 3.80736 36.6239 2.81072 35.386 2.81072H26.5725V14.1111H23.9097V0.390387H35.5627C38.1492 0.390387 40.2492 2.47087 40.2492 5.03334ZM7.51875 14.1109C3.69556 14.1111 0.592896 11.045 0.592896 7.25638C0.592896 3.46751 3.69556 0.390803 7.51875 0.390803H15.5685C19.3925 0.390803 22.4928 3.46751 22.4928 7.25638C22.4928 11.045 19.3925 14.1109 15.5682 14.1109H7.51875ZM19.8725 7.25617C19.8725 9.70896 17.8664 11.691 15.3895 11.691H15.3893H7.69667C5.22084 11.691 3.21367 9.70896 3.21367 7.25638C3.21367 4.80358 5.22084 2.81072 7.69688 2.81072H15.3895C17.8664 2.81072 19.8725 4.80358 19.8725 7.25617ZM65.969 14.1109C62.145 14.1109 59.0389 11.045 59.0389 7.25638C59.0389 3.46751 62.145 0.390803 65.969 0.390803H75.5299L73.9712 2.81072H66.1459C63.67 2.81072 61.6585 4.80358 61.6585 7.25638C61.6585 9.70896 63.67 11.691 66.1459 11.691H75.7507L74.1811 14.1109H65.969ZM94.2312 8.46071C94.7616 10.3333 96.497 11.691 98.5417 11.691H108.146L106.577 14.1107H98.3646C94.5404 14.1107 91.4346 11.0448 91.4346 7.25596C91.4346 3.4673 94.5404 0.390387 98.3646 0.390387H107.936L106.356 2.81072H98.5417C96.497 2.81072 94.7616 4.17925 94.2312 6.0408H107.185L105.615 8.46071H94.2312Z" fill="white"/>
</g>
</svg>
